# xmcd CD database file
#
# Track frame offsets:
#	150
#	60962
#	106147
#	149365
#	248302
#
# Disc length: 3799 seconds
#
# Revision: 0
# Processed by: cddbd v1.5.2PL0 Copyright (c) Steve Scherf et al.
# Submitted via: CDex 1.50Beta3
#
DISCID=330ed505
DTITLE=Maria Schneider Orchestra - Sky Blue
DYEAR=2007
DGENRE=Jazz
TTITLE0=The Pretty Road
TTITLE1=Aires de Lando
TTITLE2=Rich's Piece
TTITLE3=Cerulean Skies
TTITLE4=Sky Blue
EXTD=YEAR: 2007
EXTT0=
EXTT1=
EXTT2=
EXTT3=
EXTT4=
PLAYORDER=
